<?xml version="1.0" encoding="utf-8"?>
<svg  viewBox="31.709 -178.76 468.291 678.76" xmlns="http://www.w3.org/2000/svg">
  <path fill="#B8C1EC" d="M 455.421 367.233 L 455.421 73.823 C 455.421 62.209 446.077 52.865 434.463 52.865 L 148.039 52.865 C 101.757 52.865 64.208 90.415 64.208 136.697 L 64.208 416.135 C 64.208 462.417 101.757 499.966 148.039 499.966 L 434.463 499.966 C 446.077 499.966 455.421 490.622 455.421 479.008 L 455.421 465.036 C 455.421 458.487 452.365 452.549 447.649 448.707 C 443.982 435.259 443.982 396.923 447.649 383.475 C 452.365 379.72 455.421 373.782 455.421 367.233 Z M 175.983 169.88 C 175.983 166.998 178.341 164.64 181.223 164.64 L 366.35 164.64 C 369.232 164.64 371.59 166.998 371.59 169.88 L 371.59 187.345 C 371.59 190.226 369.232 192.584 366.35 192.584 L 181.223 192.584 C 178.341 192.584 175.983 190.226 175.983 187.345 L 175.983 169.88 Z M 175.983 225.767 C 175.983 222.886 178.341 220.528 181.223 220.528 L 366.35 220.528 C 369.232 220.528 371.59 222.886 371.59 225.767 L 371.59 243.232 C 371.59 246.114 369.232 248.472 366.35 248.472 L 181.223 248.472 C 178.341 248.472 175.983 246.114 175.983 243.232 L 175.983 225.767 Z M 397.263 444.078 L 148.039 444.078 C 132.583 444.078 120.096 431.591 120.096 416.135 C 120.096 400.766 132.67 388.191 148.039 388.191 L 397.263 388.191 C 395.604 403.123 395.604 429.146 397.263 444.078 Z" style=""/>
  <path fill="#B8C1EC" d="M 415.807 -146.422 C 402.983 -146.422 313.211 -120.773 313.211 -5.352 L 313.211 84.42 C 313.211 112.715 336.215 135.719 364.509 135.719 L 390.158 135.719 L 390.158 238.315 C 390.158 252.502 401.62 263.964 415.807 263.964 C 429.994 263.964 441.456 252.502 441.456 238.315 L 441.456 135.719 L 441.456 45.947 L 441.456 -120.773 C 441.456 -134.96 429.994 -146.422 415.807 -146.422 Z M 133.667 -133.597 C 133.667 -140.17 128.777 -145.62 122.205 -146.342 C 115.632 -147.063 109.781 -142.735 108.338 -136.403 L 84.052 -27.153 C 82.929 -22.104 82.368 -16.974 82.368 -11.844 C 82.368 24.947 110.502 55.164 146.491 58.451 L 146.491 238.315 C 146.491 252.502 157.953 263.964 172.14 263.964 C 186.327 263.964 158.001 251.835 158.001 237.648 L 182.197 58.217 C 218.186 54.93 261.912 24.947 261.912 -11.844 C 261.912 -16.974 261.351 -22.104 260.229 -27.153 L 235.943 -136.403 C 234.5 -142.815 228.488 -147.063 221.996 -146.342 C 215.503 -145.62 210.614 -140.17 210.614 -133.597 L 210.614 -26.031 C 210.614 -21.703 207.087 -18.176 202.759 -18.176 C 198.671 -18.176 195.305 -21.302 194.904 -25.39 L 184.885 -134.719 C 184.324 -141.372 178.793 -146.422 172.14 -146.422 C 165.488 -146.422 159.957 -141.372 159.396 -134.719 L 149.457 -25.39 C 149.056 -21.302 145.69 -18.176 141.602 -18.176 C 137.274 -18.176 133.747 -21.703 133.747 -26.031 L 133.747 -133.597 L 133.667 -133.597 Z M 172.381 -11.764 L 172.14 -11.764 L 171.9 -11.764 L 172.14 -12.325 L 172.381 -11.764 Z" style=""/>
</svg>