<?xml version="1.0" encoding="utf-8"?>
<svg viewBox="0 0 500 500" xmlns="http://www.w3.org/2000/svg">
  <path fill="#5eead4" d="M 415.817 206.308 C 415.817 252.208 400.917 294.608 375.817 329.008 L 502.417 455.708 C 514.917 468.208 514.917 488.508 502.417 501.008 C 489.917 513.508 469.617 513.508 457.117 501.008 L 330.517 374.308 C 296.117 399.508 253.717 414.308 207.817 414.308 C 92.917 414.308 -0.183 321.208 -0.183 206.308 C -0.183 91.408 92.917 -1.692 207.817 -1.692 C 322.717 -1.692 415.817 91.408 415.817 206.308 Z M 207.817 350.308 C 287.317 350.308 351.817 285.808 351.817 206.308 C 351.817 126.808 287.317 62.308 207.817 62.308 C 128.317 62.308 63.817 126.808 63.817 206.308 C 63.817 285.808 128.317 350.308 207.817 350.308 Z"/>
  <path fill="#5eead4" d="M 167.586 -27.789 C 167.586 -38.057 161.155 -46.574 152.511 -47.702 C 143.868 -48.831 136.173 -42.066 134.272 -32.169 L 102.332 138.536 C 100.858 146.425 100.12 154.441 100.12 162.458 C 100.12 219.948 137.121 267.162 184.452 272.297 L 184.452 553.342 C 184.452 575.513 199.527 593.423 218.186 593.423 C 236.845 593.423 251.918 575.513 251.918 553.342 L 251.918 272.297 C 299.252 267.162 336.252 219.948 336.252 162.458 C 336.252 154.441 335.514 146.425 334.039 138.536 L 302.097 -32.169 C 300.201 -42.19 292.295 -48.831 283.756 -47.702 C 275.218 -46.574 268.788 -38.057 268.788 -27.789 L 268.788 140.291 C 268.788 147.055 264.147 152.564 258.456 152.564 C 253.08 152.564 248.651 147.679 248.125 141.29 L 234.946 -29.541 C 234.208 -39.935 226.936 -47.826 218.186 -47.826 C 209.437 -47.826 202.163 -39.935 201.424 -29.541 L 188.353 141.29 C 187.826 147.679 183.398 152.564 178.022 152.564 C 172.329 152.564 167.692 147.055 167.692 140.291 L 167.691 -27.789 L 167.586 -27.789 Z" style="" transform="matrix(0.710997, 0.703195, -0.703195, 0.710997, 254.886734, -74.587891)"/>
</svg>